<svg width="57" height="62" viewBox="0 0 57 62" fill="none" xmlns="http://www.w3.org/2000/svg">
<path d="M17.7188 2.37802L14.9707 4.75603L12.2363 5.39257C8.08008 6.35338 7.68359 6.46147 7.46484 6.76173C7.35547 6.90585 6.84961 8.37109 6.34375 10.0285L5.42773 13.031L2.7207 15.4451C0.574219 17.3307 0 17.9192 0 18.1594C0 18.3395 0.423828 19.8648 0.943359 21.5582L1.87305 24.6448L0.943359 27.6594C0.423828 29.3288 0 30.8421 0 31.0343C0 31.3345 0.410156 31.7549 2.67969 33.7606L5.35938 36.1145L6.28906 39.1891C6.79492 40.8706 7.28711 42.3598 7.36914 42.5039C7.51953 42.7442 7.95703 42.8883 10.0215 43.3807L10.6641 43.5368L6.75391 49.4818C4.60742 52.7486 2.77539 55.607 2.70703 55.8232C2.51562 56.4117 2.84375 56.808 3.52734 56.808C3.81445 56.808 5.38672 56.4838 7.04102 56.0994C8.69531 55.7151 10.0625 55.4029 10.0898 55.4269C10.1035 55.4389 10.5 56.6879 10.9512 58.2012C11.6211 60.4231 11.8398 60.9996 12.1133 61.2278C12.5371 61.5521 12.8516 61.5641 13.2754 61.2638C13.4531 61.1437 15.3535 58.3694 17.5 55.1146L21.3965 49.1936L23.8574 48.6051C26.4824 47.9926 26.7969 47.8365 26.7969 47.1879C26.7969 46.9957 26.6738 46.7315 26.5098 46.5874C26.1406 46.2631 25.6621 46.2992 23.0781 46.9117L21.0684 47.3801L18.498 45.1342C16.2559 43.1885 15.8457 42.8763 15.3125 42.7562C14.2598 42.516 9.0918 41.2909 9.06445 41.2669C9.05078 41.2669 8.64062 39.8977 8.13477 38.2524L7.21875 35.2498L4.70312 33.0279C3.32227 31.8029 2.1875 30.746 2.1875 30.686C2.1875 30.6139 2.59766 29.2327 3.08984 27.5993L3.99219 24.6448L3.07617 21.6183L2.16016 18.5797L4.68945 16.3458C6.11133 15.0968 7.25977 13.9798 7.31445 13.8117C7.35547 13.6435 7.7793 12.2744 8.24414 10.7491L9.0918 7.98676L12.0312 7.30219C13.6445 6.92987 15.2168 6.55756 15.5176 6.48549C15.9551 6.36539 16.584 5.897 18.6074 4.11949L21.1504 1.90963L24.4863 2.69028C26.3184 3.12265 27.9453 3.48296 28.0957 3.48296C28.2461 3.48296 29.8457 3.13466 31.6504 2.70229L34.9316 1.93364L37.4609 4.1315C40.3594 6.65364 39.5801 6.29333 44.3652 7.39827C45.7188 7.71053 46.8672 7.99877 46.9219 8.03481C47.0039 8.09485 47.9199 11.0253 48.6855 13.6315C48.8086 14.0279 49.2871 14.5203 51.3789 16.3578L53.9082 18.6037L52.9922 21.6423L52.0625 24.6809L52.9922 27.7194L53.9082 30.77L51.3652 33.0039L48.8223 35.2498L47.9062 38.2524C47.4004 39.8977 46.9766 41.2669 46.9629 41.2909C46.9219 41.327 41.3438 42.6601 40.4824 42.8282C40.2637 42.8763 39.1152 43.789 37.5293 45.1582L34.9316 47.4161L32.7441 46.8877C31.541 46.5994 30.3926 46.3592 30.1875 46.3592C29.7637 46.3592 29.2578 46.8516 29.2578 47.26C29.2578 47.8485 29.627 48.0166 32.252 48.6411C33.6328 48.9654 34.7676 49.2416 34.7812 49.2657C34.8086 49.2897 36.5586 51.9439 38.6777 55.1867C40.7969 58.4294 42.6562 61.1677 42.8203 61.2758C42.9707 61.3959 43.2305 61.492 43.4082 61.492C44.0918 61.492 44.2559 61.1918 45.1309 58.3093C45.582 56.784 46.0059 55.5109 46.0469 55.4749C46.1016 55.4269 47.4688 55.7151 49.082 56.0994C50.6953 56.4958 52.2676 56.8201 52.5547 56.8201C53.2246 56.8441 53.498 56.5678 53.416 55.9673C53.375 55.7031 51.9121 53.3611 49.5059 49.698C47.3867 46.4793 45.623 43.765 45.582 43.6809C45.541 43.5608 45.8965 43.4287 46.9219 43.2005C47.7695 43.0084 48.4121 42.7922 48.5352 42.6481C48.6582 42.528 49.1777 41.0267 49.6836 39.3213L50.627 36.2106L53.3477 33.7966C55.3301 32.0431 56.0547 31.3225 56.0547 31.1063C56.0547 30.9502 55.6445 29.497 55.1523 27.8756C54.6602 26.2542 54.25 24.813 54.25 24.6809C54.25 24.5488 54.6602 23.1196 55.1523 21.4982C55.6445 19.8888 56.0547 18.4236 56.0547 18.2554C56.0547 18.0273 55.4395 17.4147 53.3887 15.6132L50.709 13.2592L49.752 10.0885C49.1641 8.1549 48.6855 6.82178 48.5488 6.68967C48.3848 6.54554 47.0039 6.16122 44.7617 5.63277L41.2207 4.79206L38.5547 2.46209C37.0918 1.18901 35.752 0.108101 35.5879 0.0720711C35.3965 0.0120201 33.9473 0.300262 31.6777 0.840721L28.0684 1.68143L24.5273 0.840721C22.5723 0.384335 20.8633 7.62939e-06 20.7266 7.62939e-06C20.5625 7.62939e-06 19.373 0.948811 17.7188 2.37802ZM14.0137 44.3175C14.5605 44.4496 15.1074 44.6778 15.2988 44.8459L15.627 45.1462L14.041 47.5842C13.0156 49.1576 12.4414 50.1544 12.4414 50.3826C12.4414 50.875 12.7969 51.1633 13.4121 51.1633C14.0547 51.1633 14.1367 51.0672 15.8594 48.425L17.1309 46.4673L18.2793 47.4641C19.0312 48.1127 19.3867 48.521 19.3457 48.6411C19.2363 48.8693 13.4121 57.7689 13.207 57.985C13.1113 58.1051 12.9062 57.6007 12.4277 56.0274C12.0723 54.8624 11.6758 53.7935 11.5391 53.6734C11.1973 53.3371 10.582 53.3851 8.13477 53.9736C6.93164 54.2619 5.93359 54.4901 5.90625 54.4661C5.89258 54.4541 7.39648 52.1121 9.25586 49.2657C11.3203 46.119 12.7285 44.0893 12.8516 44.0773C12.9609 44.0773 13.4805 44.1854 14.0137 44.3175ZM46.8809 49.3017C48.7539 52.1361 50.2715 54.4781 50.2578 54.4901C50.2578 54.4901 49.2324 54.2619 47.9883 53.9736C45.377 53.3611 44.8027 53.3251 44.5156 53.7094C44.4062 53.8656 44.0645 54.8264 43.7637 55.8472C43.4492 56.8681 43.1484 57.8049 43.0938 57.925C43.0117 58.0931 42.2324 57.0002 39.8125 53.3131L36.627 48.473L37.7617 47.4762C38.6367 46.7075 38.9238 46.5153 39.0469 46.6354C39.1289 46.7075 39.8262 47.7404 40.5918 48.9174C41.3711 50.0824 42.1094 51.1032 42.2461 51.1633C42.8887 51.4635 43.75 51.0552 43.75 50.4427C43.75 50.2625 43.0527 49.0735 42.1094 47.6203L40.4551 45.1102L40.7695 44.8459C41.084 44.5697 42.7793 44.0653 43.2441 44.1133C43.4082 44.1253 44.5566 45.7587 46.8809 49.3017Z" fill="white"/>
<path d="M26.1816 7.03794C22.2305 7.53035 19.5781 8.38307 16.6934 10.0525C15.1484 10.9532 12.4824 13.2952 11.4297 14.6764C9.92578 16.6821 8.57226 19.4925 8.38086 21.0298C8.3125 21.6303 8.33984 21.7264 8.62695 21.9545C9.24219 22.459 10.1445 22.1707 10.3359 21.4141C11.0879 18.3755 12.7832 15.6852 15.3125 13.4393C17.9375 11.1214 21 9.69218 24.7461 9.04363C26.1953 8.79142 29.5859 8.7674 31.0352 8.99559C36.5723 9.86032 41.5215 13.031 44.0098 17.2946C44.8027 18.6518 45.4043 20.093 45.7461 21.4982C46.1016 22.9154 46.1016 26.3142 45.7598 27.7074C44.1465 34.265 38.4453 39.1651 31.1035 40.2941C29.5176 40.5343 26.5508 40.5343 24.9785 40.2941C16.8711 39.045 10.6504 33.076 10.0215 25.9179C9.92578 24.7769 9.65234 24.3806 8.96875 24.3806C8.66797 24.3806 8.42187 24.4767 8.20312 24.6809C7.90234 24.9571 7.88867 25.0291 7.98437 26.026C8.3125 29.7491 10.0488 33.4002 12.8652 36.2827C15.5723 39.033 19.7969 41.1828 24.0625 41.9755C26.4824 42.4319 29.9277 42.3838 32.498 41.8794C40.1406 40.3541 46.0469 35.0456 47.7422 28.1878C48.1797 26.4223 48.1797 22.8193 47.7559 21.1138C46.8262 17.4627 45.1445 14.7725 42.1914 12.1903C39.2246 9.5961 35.8887 8.02277 31.8691 7.31417C30.6113 7.08598 27.0977 6.91784 26.1816 7.03794Z" fill="white"/>
<path d="M26.0449 10.8211C18.8809 11.6859 13.3438 16.5139 12.291 22.8193C12.0996 24.0323 12.1953 26.2542 12.5098 27.5633C13.7539 32.7397 18.2656 36.8111 24.3223 38.2043C25.6758 38.5165 28.793 38.6366 30.3652 38.4325C33.6738 38.0121 36.7363 36.655 39.1699 34.5292C43.3125 30.9261 44.8574 25.7498 43.2715 20.8016C42.6016 18.7598 40.5371 15.6252 39.7305 15.445C39.0469 15.3009 38.418 15.7213 38.418 16.3458C38.418 16.4899 38.6641 16.8983 38.9649 17.2346C41.7813 20.4413 42.5742 24.7169 41.084 28.5721C39.5117 32.6316 35.5879 35.6581 30.7617 36.5349C29.709 36.727 29.1074 36.7631 27.5488 36.715C25.1973 36.643 24.0215 36.3908 21.9434 35.49C14.7383 32.4034 12.0859 24.6688 16.1192 18.5557C18.1152 15.5171 21.3828 13.4874 25.4981 12.7067C25.9629 12.6227 27.125 12.5626 28.1641 12.5626C30.543 12.5866 32.0606 12.9109 34.4121 13.9318C35.4922 14.4122 36.1484 14.6284 36.3262 14.5803C37.1328 14.3281 37.3242 13.5354 36.6953 13.031C36.2715 12.6827 34.1524 11.7579 33.0176 11.4337C30.9668 10.8331 28.0684 10.5809 26.0449 10.8211Z" fill="white"/>
<path d="M27.1113 17.1745C26.7695 17.3547 26.4551 17.787 25.6895 19.1201C25.1562 20.0689 24.7051 20.8496 24.6914 20.8616C24.6777 20.8736 23.8027 21.0057 22.7637 21.1379C20.1934 21.4741 20.248 21.4621 19.7285 21.9185C19.3457 22.2548 19.2773 22.3989 19.2773 22.8913C19.2773 23.2156 19.3457 23.5639 19.4141 23.66C19.4824 23.7561 20.2207 24.4406 21.0684 25.1733L22.5996 26.5064L22.2168 28.44C21.8477 30.3496 21.8477 30.3737 22.0937 30.818C22.4355 31.4185 22.9551 31.7308 23.6113 31.7548C24.1035 31.7548 25.6484 31.1543 27.6035 30.1815C28.0137 29.9773 28.041 29.9773 28.4785 30.1815C30.3379 31.1183 31.9648 31.7548 32.4434 31.7428C33.0996 31.7308 33.6191 31.4065 33.9609 30.818C34.207 30.3737 34.207 30.3496 33.8379 28.44L33.4551 26.5064L34.877 25.2934C35.6562 24.6208 36.4082 23.9482 36.5312 23.7801C36.9004 23.3237 36.8594 22.4349 36.4355 22.0026C35.9707 21.5222 35.6426 21.4261 33.373 21.1379C32.2793 21.0057 31.377 20.8856 31.3633 20.8616C31.3496 20.8496 30.8984 20.0689 30.3652 19.1201C29.2988 17.2586 28.957 16.9343 28.0273 16.9343C27.7676 16.9343 27.3437 17.0424 27.1113 17.1745ZM28.9844 20.6695C29.4766 21.5342 29.9687 22.3148 30.0918 22.4109C30.2148 22.507 31.1445 22.6872 32.3887 22.8433L34.4668 23.0955L32.8809 24.5007C32.0195 25.2693 31.3086 25.9659 31.3086 26.038C31.3086 26.1101 31.459 26.9508 31.6504 27.8876C31.8418 28.8244 31.9922 29.641 31.9922 29.6891C31.9922 29.7251 31.1719 29.3888 30.1602 28.9324C29.1621 28.4761 28.2051 28.1037 28.0273 28.1037C27.8496 28.1037 26.8926 28.4881 25.8809 28.9445C24.8828 29.4128 24.0625 29.7491 24.0625 29.6891C24.0625 29.641 24.2129 28.8244 24.4043 27.8876C24.5957 26.9508 24.7461 26.1101 24.7461 26.038C24.7461 25.9659 24.0352 25.2814 23.1738 24.5127L21.6016 23.1075L23.6797 22.8433C24.8828 22.6872 25.8398 22.507 25.9629 22.4109C26.0859 22.3148 26.5781 21.5342 27.0703 20.6695C27.5488 19.8047 27.9863 19.0961 28.0273 19.0961C28.0684 19.0961 28.5059 19.8047 28.9844 20.6695Z" fill="white"/>
</svg>
