<svg width="81" height="68" viewBox="0 0 81 68" fill="none" xmlns="http://www.w3.org/2000/svg">
<path d="M32.8689 0.120823C32.7658 0.181217 32.3361 0.724758 31.9236 1.3438C31.5111 1.94773 30.772 3.03482 30.2736 3.75955C29.7752 4.46918 29.3799 5.17881 29.3627 5.3147C29.3627 5.48078 29.8783 5.82804 30.8236 6.2961C31.6314 6.68866 32.2845 7.06612 32.2845 7.11142C32.2845 7.17181 31.597 8.2589 30.772 9.52717L29.2595 11.8523L17.933 11.9278C7.34548 12.0033 6.55486 12.0184 5.9533 12.2751C5.07673 12.6677 3.99392 13.7397 3.77048 14.4342C3.63298 14.8418 3.58142 20.8963 3.58142 33.7451C3.59861 48.9946 3.63298 52.5729 3.82205 53.041C4.1658 53.8714 4.87048 54.5961 5.78142 55.0642L6.58923 55.487L17.4689 55.5322L28.3314 55.5775L27.0939 57.6762L25.8392 59.79H21.1814C17.0736 59.79 16.4892 59.8202 16.4033 60.0316C16.2486 60.3789 16.283 62.704 16.4377 62.9305C16.558 63.0815 20.7002 63.1117 36.5986 63.0815L56.6049 63.0362V61.4509V59.8655L51.9814 59.79L47.3408 59.7145L46.1033 57.6762L44.8658 55.6379L55.6424 55.5624C65.7142 55.487 66.4361 55.4719 67.0549 55.2001C67.897 54.8377 68.9455 53.7657 69.2033 53.0259C69.3408 52.6333 69.4095 50.9423 69.4095 47.9981L69.4267 43.5592L70.5783 44.616C71.2142 45.2049 72.5549 46.3826 73.5689 47.2281C76.0095 49.2815 75.9408 49.2815 78.3127 47.1979C80.0314 45.688 80.1002 45.5974 79.997 45.1143C79.9111 44.7066 78.897 43.7554 74.6517 40.1167L69.4095 35.6023V25.1692V14.7211L68.997 13.951C68.6189 13.2263 68.0002 12.6979 67.0033 12.2147C66.6424 12.0335 63.6861 11.9882 50.383 11.9278L34.1752 11.8523L35.1377 10.3878L36.083 8.90813L37.0627 9.39128C37.5955 9.64796 38.197 9.96503 38.3861 10.0707C39.1767 10.5388 39.3142 10.4029 41.5486 6.88494C42.133 5.97903 42.597 5.14861 42.597 5.04292C42.597 4.89194 33.4877 3.43323e-05 33.1783 3.43323e-05C33.1095 3.43323e-05 32.972 0.0604286 32.8689 0.120823ZM38.1799 3.60857L41.4111 5.2996L41.033 5.85824C40.2939 6.94533 40.4486 6.96043 37.8361 5.63176C32.8174 3.06502 32.2845 2.79325 32.2845 2.71776C32.2845 2.67246 32.5252 2.2799 32.8002 1.85714L33.3158 1.05693L34.1408 1.49478C34.5877 1.73635 36.4095 2.68756 38.1799 3.60857ZM35.7392 5.60157C37.8533 6.68866 39.6236 7.60966 39.6752 7.63986C39.7783 7.74555 38.9361 9.05912 38.7642 9.05912C38.5924 9.05912 36.822 8.19851 35.258 7.36809C34.6736 7.06612 33.5049 6.49238 32.6799 6.09982C30.583 5.11842 30.6002 5.16371 31.1674 4.3182C31.4252 3.94073 31.683 3.62366 31.7517 3.62366C31.8377 3.62366 33.6252 4.51448 35.7392 5.60157ZM34.2783 8.01733L35.2064 8.47028L34.7424 9.17991C34.4845 9.57247 33.9517 10.3576 33.5564 10.9464C32.697 12.1845 31.1158 14.5701 28.6924 18.2541C27.747 19.7035 26.9049 20.9416 26.8017 21.0322C26.6986 21.1228 26.372 21.0322 25.8564 20.7755C25.4267 20.5491 25.0658 20.3377 25.0658 20.2924C25.0658 20.2622 26.1314 18.5863 27.4377 16.5631C28.7439 14.555 30.583 11.7014 31.5111 10.2368C32.4564 8.75715 33.2642 7.54927 33.2986 7.54927C33.333 7.54927 33.7799 7.76065 34.2783 8.01733ZM28.5033 12.9243C28.5033 12.9696 28.1939 13.483 27.8158 14.0567L27.1111 15.0985H17.2627C8.4283 15.0985 7.39705 15.1287 7.29392 15.3401C7.13923 15.7025 7.17361 45.3408 7.3283 45.5672C7.44861 45.7182 13.4127 45.7484 36.5986 45.7182L65.7142 45.6729L65.7658 43.1062L65.8174 40.5546L67.0892 41.6718L68.3783 42.7891V47.6055C68.3783 51.5764 68.3267 52.4975 68.1205 52.9504C67.7595 53.7053 67.3986 54.0375 66.5736 54.3697C65.9205 54.6414 64.6486 54.6565 36.547 54.6565C16.2658 54.6565 7.07048 54.6112 6.72673 54.4905C6.07361 54.2791 5.14548 53.4789 4.8533 52.89C4.64705 52.4824 4.61267 49.2664 4.61267 33.6696C4.61267 15.5817 4.62986 14.9173 4.93923 14.3738C5.33455 13.6944 5.72986 13.3773 6.5033 13.0753C7.01892 12.879 8.66892 12.8488 17.8127 12.8337C23.6908 12.8337 28.5033 12.879 28.5033 12.9243ZM66.3158 12.9847C67.0205 13.1508 67.9314 13.9057 68.1892 14.5399C68.3095 14.8267 68.3783 18.2088 68.3783 24.7313V34.485L67.0892 33.3677L65.8002 32.2504L65.7658 23.7046L65.7142 15.174L48.922 15.1287C39.6752 15.1136 32.1127 15.0683 32.1127 15.0381C32.1127 15.0079 32.422 14.4946 32.8174 13.9057L33.522 12.8337H49.6095C59.647 12.8337 65.9377 12.8941 66.3158 12.9847ZM26.4408 16.0799C26.4408 16.1252 25.822 17.1066 25.0486 18.2692C24.2924 19.4167 23.6908 20.4887 23.7252 20.6246C23.7939 20.9416 26.5783 22.3609 27.0424 22.3005C27.283 22.2854 27.9361 21.3946 29.4142 19.1298L31.4424 16.0044H48.1142H64.7689V23.6594V31.3143L58.8049 26.1053L52.8236 20.8963L49.6955 19.8696C47.9939 19.311 46.447 18.8731 46.2752 18.9033C46.0861 18.9335 45.9314 19.0694 45.897 19.2053C45.8627 19.3563 46.3439 20.685 46.9799 22.1646L48.1142 24.8521L56.433 32.1598L64.7689 39.4826V42.155V44.8425H41.9095H19.0502L19.0158 33.0204L18.9642 21.2134L15.372 21.1681C12.6049 21.1379 11.7455 21.1832 11.6252 21.3191C11.5564 21.4248 11.4877 26.7696 11.4877 33.1714V44.8425H9.85486H8.22205V30.4235V16.0044H17.3314C22.3502 16.0044 26.4408 16.0346 26.4408 16.0799ZM49.833 20.9869C51.8611 21.6513 52.222 21.8324 52.9783 22.4817L53.8377 23.2366L52.3424 24.5653L50.8642 25.8939L50.0049 25.1541C49.1455 24.4143 49.0424 24.2029 47.4439 20.4132C47.4095 20.3226 47.4095 20.232 47.4439 20.232C47.4955 20.232 48.5611 20.5642 49.833 20.9869ZM18.0189 33.4432V44.8425H15.2689H12.5189V43.9517V43.0458L13.3439 43.0005C14.083 42.9552 14.1517 42.925 14.1517 42.5778C14.1517 42.2305 14.083 42.2003 13.3439 42.155L12.5189 42.1097V41.0679V40.0261L13.9455 39.9808C15.3205 39.9355 15.3549 39.9204 15.3549 39.5581C15.3549 39.1957 15.3205 39.1806 13.9455 39.1353L12.5189 39.09V38.1237V37.1574L13.3439 37.1121C14.083 37.0668 14.1517 37.0366 14.1517 36.6893C14.1517 36.3421 14.083 36.3119 13.3439 36.2666L12.5189 36.2213V35.1795V34.1377L13.9455 34.0924C15.3205 34.0471 15.3549 34.032 15.3549 33.6696C15.3549 33.3073 15.3205 33.2922 13.9455 33.2469L12.5189 33.2016V32.2353V31.269L13.3439 31.2237C14.083 31.1784 14.1517 31.1482 14.1517 30.8009C14.1517 30.4537 14.083 30.4235 13.3439 30.3782L12.5189 30.3329V29.2911V28.2493L13.9455 28.204C15.3205 28.1587 15.3549 28.1436 15.3549 27.7812C15.3549 27.4189 15.3205 27.4038 13.9455 27.3585L12.5189 27.3132V26.3469V25.3806L13.3439 25.3353C14.083 25.29 14.1517 25.2598 14.1517 24.9125C14.1517 24.5653 14.083 24.5351 13.3439 24.4898L12.5189 24.4445V23.2366V22.0438H15.2689H18.0189V33.4432ZM71.9361 41.7775L70.4408 43.1062L61.0736 34.8775C55.9174 30.348 51.7064 26.6187 51.7064 26.5734C51.7236 26.5281 51.947 26.2714 52.2049 25.9996L52.7033 25.5014L61.383 33.0657C67.433 38.3351 70.183 40.63 70.3892 40.5848C71.3002 40.4338 70.8189 39.9657 62.1049 32.4014L53.408 24.8672L53.9752 24.3539L54.5252 23.8405L63.9955 32.1598L73.4486 40.464L71.9361 41.7775ZM74.8236 41.5209C75.1502 41.8379 75.133 41.853 73.5689 43.2119C72.022 44.5858 72.0049 44.6009 71.6439 44.3141C71.4548 44.1631 71.3002 43.9668 71.3002 43.8762C71.3002 43.6648 74.0674 41.2189 74.3252 41.2189C74.4283 41.2189 74.6517 41.3548 74.8236 41.5209ZM77.5392 43.9064L79.0345 45.22L77.5049 46.5637L75.958 47.9075L74.6002 46.8355C72.5377 45.1898 72.5549 45.4767 74.3252 43.9215C75.1674 43.1817 75.8892 42.5778 75.9408 42.5778C75.9924 42.5778 76.7142 43.1666 77.5392 43.9064ZM44.9689 57.6762L46.2236 59.79H36.5814H26.9392L27.833 58.3104C28.3142 57.5101 28.9158 56.5589 29.1392 56.1966L29.5517 55.5624H36.633H43.7142L44.9689 57.6762ZM55.6595 61.4509V62.2058H36.4955H17.3314V61.4509V60.6959H36.4955H55.6595V61.4509Z" fill="white"/>
<path d="M35.808 50.2629C34.433 50.7913 34.3815 52.6182 35.7221 53.2222C36.3924 53.5242 36.8908 53.5091 37.544 53.1618C38.558 52.6182 38.7471 51.2896 37.8877 50.595C37.4408 50.2176 36.358 50.0515 35.808 50.2629ZM37.1658 51.2745C37.5268 51.5764 37.5096 51.9237 37.1486 52.271C36.6158 52.7843 35.7221 52.4522 35.7221 51.7274C35.7221 51.0631 36.6158 50.7762 37.1658 51.2745Z" fill="white"/>
<path d="M35.808 50.2629C34.433 50.7913 34.3815 52.6182 35.7221 53.2222C36.3924 53.5242 36.8908 53.5091 37.544 53.1618C38.558 52.6182 38.7471 51.2896 37.8877 50.595C37.4408 50.2176 36.358 50.0515 35.808 50.2629ZM37.1658 51.2745C37.5268 51.5764 37.5096 51.9237 37.1486 52.271C36.6158 52.7843 35.7221 52.4522 35.7221 51.7274C35.7221 51.0631 36.6158 50.7762 37.1658 51.2745Z" stroke="white"/>
<path d="M33.9174 19.7338C33.247 20.3075 31.9924 21.3644 31.1158 22.0891C30.2564 22.8138 29.5345 23.4782 29.5345 23.5688C29.5345 23.6443 30.7892 24.7766 32.3017 26.0902C34.1236 27.6454 35.2064 28.4607 35.447 28.4607C35.7908 28.4607 35.808 28.3852 35.8595 26.7847L35.9111 25.1088L36.7189 25.2296C38.558 25.4863 40.1564 26.2412 41.4283 27.4491C42.7861 28.7324 43.3361 29.7742 43.697 31.7068C43.8689 32.643 43.9549 32.8392 44.2127 32.8392C44.8142 32.8392 44.9174 32.4316 44.608 31.0878C43.8517 27.6756 40.947 25.0333 37.3549 24.4445C37.117 24.4001 36.8791 24.3585 36.6754 24.3228C36.3935 24.2734 36.1772 24.2355 36.1174 24.218C35.9627 24.1878 35.8939 23.8707 35.8939 23.3272V22.4968H36.4611C37.4924 22.4968 39.1939 22.9497 40.6033 23.5839C42.7002 24.5351 44.5392 26.1959 45.5705 28.0832C46.3783 29.578 46.722 30.6651 46.722 31.7672C46.722 32.5373 47.0486 33.0053 47.4955 32.8543C47.7705 32.7637 47.7877 32.6128 47.7017 31.4351C47.5986 29.9403 46.9799 28.1889 46.0174 26.7847C45.2611 25.6675 43.1127 23.7801 41.8408 23.1158C40.5174 22.4213 38.283 21.7418 36.9767 21.6362L35.9111 21.5456L35.8595 20.1716C35.7908 18.3749 35.5845 18.3296 33.9174 19.7338ZM34.8283 25.2447L34.7767 26.9508L32.8002 25.2598L30.8236 23.5688L32.8002 21.923L34.7767 20.2773L34.8283 21.9079C34.8455 22.8138 34.8455 24.3237 34.8283 25.2447Z" fill="white"/>
<path d="M33.9174 19.7338C33.247 20.3075 31.9924 21.3644 31.1158 22.0891C30.2564 22.8138 29.5345 23.4782 29.5345 23.5688C29.5345 23.6443 30.7892 24.7766 32.3017 26.0902C34.1236 27.6454 35.2064 28.4607 35.447 28.4607C35.7908 28.4607 35.808 28.3852 35.8595 26.7847L35.9111 25.1088L36.7189 25.2296C38.558 25.4863 40.1564 26.2412 41.4283 27.4491C42.7861 28.7324 43.3361 29.7742 43.697 31.7068C43.8689 32.643 43.9549 32.8392 44.2127 32.8392C44.8142 32.8392 44.9174 32.4316 44.608 31.0878C43.8517 27.6756 40.947 25.0333 37.3549 24.4445C37.117 24.4001 36.8791 24.3585 36.6754 24.3228C36.3935 24.2734 36.1772 24.2355 36.1174 24.218C35.9627 24.1878 35.8939 23.8707 35.8939 23.3272V22.4968H36.4611C37.4924 22.4968 39.1939 22.9497 40.6033 23.5839C42.7002 24.5351 44.5392 26.1959 45.5705 28.0832C46.3783 29.578 46.722 30.6651 46.722 31.7672C46.722 32.5373 47.0486 33.0053 47.4955 32.8543C47.7705 32.7637 47.7877 32.6128 47.7017 31.4351C47.5986 29.9403 46.9799 28.1889 46.0174 26.7847C45.2611 25.6675 43.1127 23.7801 41.8408 23.1158C40.5174 22.4213 38.283 21.7418 36.9767 21.6362L35.9111 21.5456L35.8595 20.1716C35.7908 18.3749 35.5845 18.3296 33.9174 19.7338ZM34.8283 25.2447L34.7767 26.9508L32.8002 25.2598L30.8236 23.5688L32.8002 21.923L34.7767 20.2773L34.8283 21.9079C34.8455 22.8138 34.8455 24.3237 34.8283 25.2447Z" stroke="white"/>
<path d="M25.3236 28.0228C25.2369 28.099 25.1745 28.1479 25.1349 28.2111C25.0332 28.3733 25.0817 28.6297 25.2549 29.6836C26.0455 34.6963 30.4283 38.471 36.2721 39.1806L37.0799 39.2712L37.1315 40.6602C37.183 41.8379 37.2346 42.0493 37.4924 42.0946C37.8361 42.155 43.4565 37.5047 43.4565 37.1423C43.4565 36.795 37.9736 32.3863 37.544 32.3863C37.2002 32.3863 37.183 32.4769 37.1315 34.0018C37.1057 34.9385 37.1186 35.3876 36.9098 35.5478C36.7013 35.7078 36.2715 35.5795 35.3611 35.3607C32.0096 34.5454 29.6549 32.0843 29.2596 28.9891C29.1393 27.9775 28.8471 27.6302 28.4002 27.9473C28.1768 28.1134 28.1424 28.3248 28.2283 29.1099C28.6408 32.6731 31.9065 35.7683 35.9111 36.4025L37.0971 36.5836V37.4745V38.3653L36.2893 38.2747C31.8549 37.7462 28.1252 35.0587 26.7158 31.3747C26.5783 30.9821 26.3549 30.0611 26.2518 29.3062C26.0455 27.902 25.8221 27.585 25.3236 28.0228ZM42.0815 37.1272C42.0815 37.2631 38.4205 40.464 38.2658 40.464C38.1799 40.464 38.1283 38.9692 38.1283 37.1272V33.7904L40.1049 35.4211C41.1877 36.3119 42.0815 37.0819 42.0815 37.1272Z" fill="white"/>
<path d="M25.3236 28.0228C25.2369 28.099 25.1745 28.1479 25.1349 28.2111C25.0332 28.3733 25.0817 28.6297 25.2549 29.6836C26.0455 34.6963 30.4283 38.471 36.2721 39.1806L37.0799 39.2712L37.1315 40.6602C37.183 41.8379 37.2346 42.0493 37.4924 42.0946C37.8361 42.155 43.4565 37.5047 43.4565 37.1423C43.4565 36.795 37.9736 32.3863 37.544 32.3863C37.2002 32.3863 37.183 32.4769 37.1315 34.0018C37.1057 34.9385 37.1186 35.3876 36.9098 35.5478C36.7013 35.7078 36.2715 35.5795 35.3611 35.3607C32.0096 34.5454 29.6549 32.0843 29.2596 28.9891C29.1393 27.9775 28.8471 27.6302 28.4002 27.9473C28.1768 28.1134 28.1424 28.3248 28.2283 29.1099C28.6408 32.6731 31.9065 35.7683 35.9111 36.4025L37.0971 36.5836V37.4745V38.3653L36.2893 38.2747C31.8549 37.7462 28.1252 35.0587 26.7158 31.3747C26.5783 30.9821 26.3549 30.0611 26.2518 29.3062C26.0455 27.902 25.8221 27.585 25.3236 28.0228ZM42.0815 37.1272C42.0815 37.2631 38.4205 40.464 38.2658 40.464C38.1799 40.464 38.1283 38.9692 38.1283 37.1272V33.7904L40.1049 35.4211C41.1877 36.3119 42.0815 37.0819 42.0815 37.1272Z" stroke="white"/>
<path d="M2.97988 8.99873C1.98301 9.3007 1.15801 9.96503 0.573633 10.886L0.0580078 11.7014L0.00644531 19.93C-0.0107422 24.4596 0.00644531 28.3097 0.0580078 28.506C0.126758 28.7626 0.264258 28.8381 0.539258 28.8079L0.917383 28.7626L1.00332 20.3075C1.07282 12.8098 1.06363 11.6427 1.63951 10.9992C1.77567 10.8471 1.94454 10.7242 2.15488 10.5539L2.17955 10.5337C3.15134 9.73855 3.1521 9.73793 9.33926 9.66306L15.183 9.58757V9.21011V8.83265L9.4252 8.80245C4.78457 8.78735 3.52988 8.81755 2.97988 8.99873Z" fill="white"/>
<path d="M2.97988 8.99873C1.98301 9.3007 1.15801 9.96503 0.573633 10.886L0.0580078 11.7014L0.00644531 19.93C-0.0107422 24.4596 0.00644531 28.3097 0.0580078 28.506C0.126758 28.7626 0.264258 28.8381 0.539258 28.8079L0.917383 28.7626L1.00332 20.3075C1.07282 12.8098 1.06363 11.6427 1.63951 10.9992C1.77567 10.8471 1.94454 10.7242 2.15488 10.5539L2.17955 10.5337C3.15134 9.73855 3.1521 9.73793 9.33926 9.66306L15.183 9.58757V9.21011V8.83265L9.4252 8.80245C4.78457 8.78735 3.52988 8.81755 2.97988 8.99873Z" stroke="white"/>
<path d="M68.1549 8.96854C67.9658 9.40639 68.2064 9.61777 69.0658 9.72346C70.1314 9.84425 71.2142 10.5539 71.7642 11.4598C72.1424 12.109 72.1596 12.2449 72.1596 15.7629C72.1596 17.7709 72.2283 19.4922 72.3142 19.5979C72.4002 19.7187 72.6064 19.779 72.7783 19.7489C73.0877 19.7036 73.1049 19.4922 73.1049 15.7025C73.1049 12.5967 73.1049 11.6492 72.678 10.97C72.4906 10.6719 72.221 10.4254 71.833 10.0707C71.0424 9.3309 70.1314 8.90814 69.083 8.80245C68.4299 8.74206 68.2408 8.77226 68.1549 8.96854Z" fill="white"/>
<path d="M68.1549 8.96854C67.9658 9.40639 68.2064 9.61777 69.0658 9.72346C70.1314 9.84425 71.2142 10.5539 71.7642 11.4598C72.1424 12.109 72.1596 12.2449 72.1596 15.7629C72.1596 17.7709 72.2283 19.4922 72.3142 19.5979C72.4002 19.7187 72.6064 19.779 72.7783 19.7489C73.0877 19.7036 73.1049 19.4922 73.1049 15.7025C73.1049 12.5967 73.1049 11.6492 72.678 10.97C72.4906 10.6719 72.221 10.4254 71.833 10.0707C71.0424 9.3309 70.1314 8.90814 69.083 8.80245C68.4299 8.74206 68.2408 8.77226 68.1549 8.96854Z" stroke="white"/>
<path d="M3.3408 64.8475C3.28923 64.9684 3.28923 65.1799 3.3408 65.3008C3.42673 65.4972 6.05642 65.5275 25.9939 65.4972L48.5267 65.4519V65.0741V64.6964L25.9939 64.651C6.05642 64.6208 3.42673 64.651 3.3408 64.8475Z" fill="white"/>
<path d="M3.3408 64.8475C3.28923 64.9684 3.28923 65.1799 3.3408 65.3008C3.42673 65.4972 6.05642 65.5275 25.9939 65.4972L48.5267 65.4519V65.0741V64.6964L25.9939 64.651C6.05642 64.6208 3.42673 64.651 3.3408 64.8475Z" stroke="white"/>
<path d="M1.62205 67.1121C1.57048 67.233 1.57048 67.4445 1.62205 67.5654C1.70798 67.7618 2.68767 67.7921 9.40798 67.7618L17.0736 67.7165V67.3387V66.961L9.40798 66.9156C2.68767 66.8854 1.70798 66.9156 1.62205 67.1121Z" fill="white"/>
<path d="M1.62205 67.1121C1.57048 67.233 1.57048 67.4445 1.62205 67.5654C1.70798 67.7618 2.68767 67.7921 9.40798 67.7618L17.0736 67.7165V67.3387V66.961L9.40798 66.9156C2.68767 66.8854 1.70798 66.9156 1.62205 67.1121Z" stroke="white"/>
<path d="M29.2939 67.2632C29.2424 67.3841 29.2424 67.5956 29.2939 67.7165C29.3799 67.913 31.2533 67.9432 45.072 67.913L60.7299 67.8676V67.4899V67.1121L45.072 67.0667C31.2533 67.0365 29.3799 67.0667 29.2939 67.2632Z" fill="white"/>
<path d="M29.2939 67.2632C29.2424 67.3841 29.2424 67.5956 29.2939 67.7165C29.3799 67.913 31.2533 67.9432 45.072 67.913L60.7299 67.8676V67.4899V67.1121L45.072 67.0667C31.2533 67.0365 29.3799 67.0667 29.2939 67.2632Z" stroke="white"/>
<path d="M62.9814 67.2632C62.9299 67.3841 62.9299 67.5956 62.9814 67.7165C63.0674 67.913 63.4627 67.9432 65.4392 67.913L67.7767 67.8676V67.4899V67.1121L65.4392 67.0667C63.4627 67.0365 63.0674 67.0667 62.9814 67.2632Z" fill="white"/>
<path d="M62.9814 67.2632C62.9299 67.3841 62.9299 67.5956 62.9814 67.7165C63.0674 67.913 63.4627 67.9432 65.4392 67.913L67.7767 67.8676V67.4899V67.1121L65.4392 67.0667C63.4627 67.0365 63.0674 67.0667 62.9814 67.2632Z" stroke="white"/>
</svg>
