<svg width="79" height="67" viewBox="0 0 79 67" fill="none" xmlns="http://www.w3.org/2000/svg">
<path d="M40.4258 0.878601C35.334 1.44788 29.8873 3.19639 25.8447 5.55484C16.8801 10.7733 11.2791 18.9736 10.3225 28.3125C10.1527 29.9797 10.2145 33.3412 10.4305 34.5069L10.523 35.0084L7.02051 35.049C3.54883 35.0897 3.51797 35.0897 3.2248 35.415C2.94707 35.7132 2.93164 36.0656 2.93164 44.3744V53.0085L2.28359 53.1712C1.35781 53.4151 0.709766 53.8895 0.324023 54.5808C0.0308594 55.123 0 55.3941 0 57.9016C0 60.0703 0.0462891 60.748 0.231445 61.1546C0.540039 61.7917 1.00293 62.2254 1.72813 62.5507C2.25273 62.7812 2.66934 62.8083 6.0793 62.8083H9.84414L10.415 63.4724C11.4951 64.7737 13.3621 65.8444 15.1365 66.1969C16.3709 66.4408 18.5311 66.3053 19.6266 65.9393C20.9844 65.4785 22.3268 64.6246 23.1754 63.6622L23.9469 62.8083H35.1025H46.2736L46.7365 63.3776C47.7395 64.6517 49.267 65.6276 50.9643 66.0884C51.8283 66.3188 52.2912 66.346 53.5873 66.3053C54.4977 66.2646 55.5006 66.1291 55.9481 65.9935C57.1824 65.6276 58.7717 64.5974 59.5586 63.6622L60.2529 62.8218H62.4594C65.5145 62.8083 65.2676 63.1742 65.2676 58.6335V55.0145L66.1316 54.4182C69.4953 52.1139 73.1367 48.1832 75.2043 44.6455C76.7936 41.9482 78.0588 38.4105 78.6297 35.1575C79.0154 33.0294 79.0154 28.7734 78.6451 26.6182C76.9324 16.7236 70.1125 8.4148 60.0369 3.92832C56.5344 2.36958 52.8775 1.38011 49.0973 0.946373C47.0451 0.71595 42.2156 0.675285 40.4258 0.878601ZM48.4492 2.76265C54.3742 3.41326 60.0061 5.50062 64.7893 8.82143C64.9436 8.92986 64.0332 10.3395 63.3234 11.1121C62.3051 12.2236 60.7621 13.3892 59.466 14.0534C59.358 14.1076 59.1574 13.823 58.9414 13.2944C57.6762 10.1904 54.4514 7.73708 50.7174 7.03226C48.1098 6.53075 44.8232 6.97804 42.6631 8.1166C41.9379 8.49612 41.7527 8.55034 41.0275 8.48257C40.5801 8.44191 39.4383 8.49612 38.4816 8.59101C37.0467 8.72655 36.6764 8.72655 36.3215 8.57745C35.7814 8.34703 35.1797 7.33046 34.4699 5.51418L33.9607 4.18585L34.4391 4.00965C35.118 3.75211 38.3273 3.0744 39.6543 2.91175C40.2869 2.83042 40.9813 2.73554 41.1973 2.70843C42.0922 2.6 47.2457 2.64066 48.4492 2.76265ZM32.1555 5.33797C32.3252 6.13768 33.4824 8.52324 34.0225 9.22806C34.9174 10.3937 36.2752 10.7868 38.4199 10.5157C38.9754 10.4479 39.4383 10.4073 39.4691 10.4208C39.5 10.4344 39.2377 10.8139 38.8982 11.2341C38.5588 11.6678 38.065 12.4811 37.8182 13.0504C36.2135 16.7236 37.0621 20.695 40.04 23.4736L41.2127 24.5715L40.827 25.0731C39.9012 26.2658 39.9475 27.8381 40.935 29.6544C41.475 30.6574 42.8945 32.4737 43.6969 33.2056L44.1598 33.6394L43.3111 33.9782C42.8328 34.168 42.3082 34.5069 42.0613 34.7915C41.1973 35.781 41.1973 35.8487 41.1973 44.8081V53.0492H40.5801H39.9629V44.3337C39.9629 35.6319 39.9629 35.6048 39.6389 35.3472C39.3457 35.1168 38.9754 35.0897 35.5037 35.0219C31.9549 34.9542 31.6772 34.9406 31.2451 34.6695C29.9799 33.8834 28.082 33.2734 25.8139 32.9346C24.2709 32.7041 23.3914 32.2975 22.7896 31.552C22.4348 31.1047 22.2959 30.6845 22.049 29.3833C21.4473 26.0761 21.1541 25.3713 20.0586 24.558C19.1482 23.8667 16.3246 23.2297 14.1799 23.2297C13.5936 23.2297 13.5781 23.2161 13.6707 22.8501C13.8713 22.0911 14.8588 19.8682 15.584 18.5534C18.0064 14.1212 22.0645 10.0413 26.8014 7.27624C28.2209 6.44942 31.7852 4.78224 31.9549 4.87712C32.0012 4.90423 32.0938 5.10755 32.1555 5.33797ZM50.5322 8.92986C53.7416 9.64824 56.2412 11.7898 57.1824 14.6227C57.3522 15.1649 57.4447 15.8968 57.4447 16.7914C57.4293 18.4179 56.9664 19.8411 56.0098 21.1287C55.6703 21.5896 53.8496 23.2974 51.8438 25.0595L48.2949 28.177L44.7615 25.0595C40.04 20.8848 39.392 19.9631 39.2377 17.198C39.0988 14.6769 39.8703 12.8877 41.8916 11.085C43.1877 9.91933 44.3141 9.33649 45.9959 8.94342C47.1068 8.68589 49.3904 8.67233 50.5322 8.92986ZM69.5416 12.9962C73.9082 17.7266 76.5775 23.8125 76.7164 29.3969L76.7627 30.8879L70.668 30.9285C63.8018 30.9692 63.2926 30.915 61.0707 29.9391C59.6512 29.3156 55.8863 26.9842 54.4822 25.8592C54.2971 25.7101 54.4822 25.4797 55.7166 24.3547C57.383 22.8501 58.0002 22.1047 58.6482 20.8441C59.2037 19.7869 59.4969 18.6483 59.6512 17.1709L59.7592 16.0459L60.6232 15.6257C62.6137 14.6362 64.7121 12.8742 65.9002 11.1934L66.5791 10.2311L67.5512 11.0714C68.0912 11.5323 68.9861 12.3998 69.5416 12.9962ZM16.8184 25.4119C18.3459 25.683 18.8396 25.927 19.1328 26.5369C19.2871 26.8487 19.4877 27.4586 19.5803 27.9059C19.6574 28.3532 19.8426 29.2884 19.9814 29.9933C20.5369 32.8668 21.941 34.168 25.1195 34.7508L26.4619 35.0084H19.5803L12.6986 35.0219L12.5906 34.4391C12.1895 31.9451 12.4209 26.93 13.0381 25.1815C13.0844 25.0324 15.4143 25.1679 16.8184 25.4119ZM48.3566 30.4135C48.727 30.4135 49.159 30.1153 50.7328 28.7327L52.6615 27.052L55.4543 28.9089C58.6791 31.037 59.9906 31.7147 62.0273 32.3382L63.4932 32.7855L70.0971 32.8261L76.6856 32.8668V33.3005C76.6856 34.0054 76.0992 36.8924 75.6826 38.2343C74.1859 43.1274 71.1617 47.6274 67.0111 51.1651L65.3447 52.5748L65.2676 48.2374L65.1904 43.9L61.3176 39.3458C59.1883 36.8382 57.1979 34.6289 56.8893 34.4255C55.8863 33.7478 55.2383 33.6665 50.9951 33.6665H47.0914L46.1348 32.7584C43.2031 30.0068 41.799 27.5399 42.5088 26.3472L42.7711 25.8999L45.3479 28.1634C47.4926 30.0475 47.9863 30.4135 48.3566 30.4135ZM55.3617 35.8352C55.6703 35.9978 57.2441 37.7328 59.4814 40.3759L63.1074 44.6319V52.7781V60.9107H62.1354H61.1633L61.225 59.7857C61.3022 58.4573 61.1016 57.4543 60.4998 56.3564C59.8672 55.1772 58.9568 54.2555 57.7533 53.5507C56.3029 52.7103 55.4543 52.4799 53.5873 52.3986C52.2912 52.3579 51.8283 52.385 50.9643 52.629C48.5881 53.2525 46.5668 54.9468 45.749 56.9799C45.3633 57.9558 45.1781 59.2842 45.3324 60.1381L45.4713 60.9107H44.4066H43.3574L43.3883 48.5627L43.4346 36.2147L43.8666 35.8894L44.2986 35.5641H49.5756C54.5748 35.5641 54.8834 35.5777 55.3617 35.8352ZM22.6816 44.9843V53.0492H21.6787C21.0152 53.0492 20.29 52.9272 19.4877 52.6968C17.8059 52.1952 15.9852 52.1952 14.3033 52.6968C13.1307 53.0356 13.0227 53.0492 9.10352 53.0492H5.0918V44.9843V36.9195H13.8867H22.6816V44.9843ZM27.7734 41.4331C27.8506 45.6485 27.866 45.8925 28.1438 46.0822C28.7301 46.4482 29.1467 46.3127 30.2268 45.391C30.7977 44.903 31.3223 44.5099 31.3994 44.5099C31.4766 44.5099 32.0012 44.903 32.5721 45.391C33.7139 46.3669 34.0688 46.4482 34.6397 45.9332L35.0254 45.6078V41.2569V36.9195H36.4141H37.8027V44.9843V53.0492H31.3223H24.8418V44.9843V36.906L26.2768 36.9466L27.6963 36.9873L27.7734 41.4331ZM32.8344 40.0235L32.8652 43.0596L32.2326 42.5446C31.5074 41.9753 31.0754 41.9753 30.3656 42.5852L29.9336 42.9376V39.915V36.906L31.3686 36.9466L32.7881 36.9873L32.8344 40.0235ZM17.8367 54.2826C19.7346 54.5944 21.2313 55.5703 22.1725 57.129C22.5582 57.7932 22.6045 57.9829 22.6045 59.2842C22.6045 60.626 22.5736 60.7751 22.1107 61.6019C21.509 62.6727 20.5369 63.4995 19.318 64.0011C18.5465 64.3264 18.2379 64.367 16.8955 64.367C15.5531 64.367 15.2445 64.3264 14.473 64.0011C10.7082 62.4559 9.90586 58.1185 12.9146 55.6109C13.8096 54.8654 14.7662 54.4317 15.8771 54.2691C16.8955 54.12 16.8338 54.12 17.8367 54.2826ZM55.9481 54.8112C57.0744 55.2992 58.0311 56.1667 58.6174 57.251C58.9723 57.9016 59.0186 58.1727 59.0186 59.3519C59.0186 60.5312 58.9723 60.8022 58.6174 61.4528C58.0156 62.5643 57.0898 63.4047 55.8863 63.9197C54.9143 64.3399 54.76 64.367 53.2324 64.367C51.7512 64.367 51.5352 64.3399 50.7174 63.9604C49.5293 63.4453 48.2795 62.2525 47.8166 61.2224C47.5697 60.6396 47.4772 60.1516 47.4772 59.3519C47.4772 57.8881 47.8938 56.9528 49.0201 55.8956C50.0076 54.9603 51.0877 54.4453 52.3838 54.2962C53.6799 54.1471 54.8063 54.3097 55.9481 54.8112ZM10.4922 55.0145C10.4922 55.0417 10.2762 55.367 10.0293 55.7194C9.31953 56.7088 8.93379 57.9423 8.93379 59.2842C8.93379 59.9212 8.98008 60.5447 9.0418 60.6802C9.13438 60.8971 8.90293 60.9107 5.925 60.9107C3.16309 60.9107 2.68477 60.8836 2.43789 60.6802C2.19102 60.4905 2.16016 60.2058 2.16016 57.9152C2.16016 55.4347 2.17559 55.367 2.49961 55.1636C2.79277 54.9739 3.45625 54.9468 6.66563 54.9468C8.77949 54.9468 10.4922 54.9739 10.4922 55.0145ZM41.1973 57.9287V60.9107H32.9887H24.7647L24.7492 59.2435C24.7492 57.4408 24.5332 56.7359 23.6074 55.5296L23.16 54.9468H32.1709H41.1973V57.9287Z" fill="white"/>
<path d="M46.4588 10.5699C41.2127 11.8034 39.3148 17.4555 42.9562 21.0203C45.7182 23.7176 50.5168 23.826 53.4484 21.2507C55.8092 19.1769 56.2566 15.7748 54.4822 13.3486C52.7695 11.0172 49.4367 9.8651 46.4588 10.5699ZM50.4705 12.6844C51.4734 13.091 52.3529 13.8365 52.893 14.7582C53.2478 15.3546 53.3096 15.5986 53.3096 16.7236C53.3096 18.2281 52.9855 18.9872 51.9209 19.9088C50.8717 20.8441 50.0076 21.1287 48.2949 21.1287C47.0143 21.1287 46.7365 21.0745 46.0576 20.7628C42.6631 19.204 42.2465 15.2733 45.2398 13.1588C46.5977 12.1964 48.7732 11.9931 50.4705 12.6844Z" fill="white"/>
<path d="M45.8262 36.7433C45.7027 36.784 45.4713 36.9059 45.3324 37.0279C45.0855 37.2177 45.0547 37.5837 45.0547 41.0129C45.0547 44.6048 45.0701 44.7946 45.3633 45.0521C45.6564 45.3096 45.8725 45.3232 52.9701 45.3232H60.2838L60.6078 45.0114C60.793 44.8352 60.9473 44.5506 60.9473 44.3608C60.9473 43.9 54.9451 36.8517 54.4514 36.7433C54.0039 36.6349 46.1502 36.6349 45.8262 36.7433ZM55.2383 40.4707C56.1332 41.528 57.059 42.6259 57.2904 42.9105L57.7379 43.4256H52.4764H47.2148V40.9858V38.546H50.4242L53.6182 38.5596L55.2383 40.4707Z" fill="white"/>
<path d="M15.9697 55.7465C14.6428 56.0718 13.7633 56.6817 13.1924 57.6441C12.6678 58.5522 12.5752 59.379 12.8684 60.2736C13.6244 62.5372 16.3709 63.6351 18.7317 62.6185C21.2158 61.5477 21.8176 58.7691 19.9815 56.8715C19.1483 55.9904 17.2041 55.4483 15.9697 55.7465ZM17.5436 57.6712C19.0557 58.1727 19.3797 59.8805 18.1299 60.7209C17.7287 60.9784 17.4201 61.0733 16.8801 61.0733C14.6891 61.0733 14.1028 58.4844 16.1086 57.7118C16.6949 57.495 16.9881 57.4814 17.5436 57.6712Z" fill="white"/>
<path d="M52.3838 55.7465C50.5014 56.1802 49.0664 57.7254 49.0664 59.3519C49.0664 60.0974 49.4984 61.114 50.0848 61.6968C51.6895 63.3504 54.4977 63.4453 56.2412 61.9272C57.059 61.1953 57.3984 60.4769 57.3984 59.379C57.3984 58.3489 57.167 57.7525 56.4727 56.9799C55.6395 56.0582 53.649 55.4618 52.3838 55.7465ZM54.3588 57.8203C54.8217 58.0371 55.2383 58.7691 55.2383 59.3655C55.2383 60.8293 53.3713 61.6426 52.0752 60.748C51.1957 60.1516 50.9951 59.2164 51.5814 58.4573C52.2141 57.617 53.3559 57.3459 54.3588 57.8203Z" fill="white"/>
</svg>
