<svg width="83" height="72" viewBox="0 0 83 72" fill="none" xmlns="http://www.w3.org/2000/svg">
<path d="M0.658 57.5745H5.81L8.582 63.6365L11.368 57.5745H16.492V66.9125H13.692L13.762 59.9265H13.286L9.772 66.9125H7.406L3.892 59.9265H3.388L3.458 66.9125H0.658V57.5745ZM28.4709 66.9125L27.6729 65.3305H21.4989L20.7009 66.9125H17.4529L22.3949 57.5745H26.8189L31.7049 66.9125H28.4709ZM26.6789 63.2865L24.8729 59.7445H24.3129L22.5069 63.2865H26.6789ZM46.3424 65.0225L45.2644 67.0105L44.3544 66.3525C43.5844 66.9545 42.7864 67.0525 38.7124 67.0525C34.9184 67.0525 34.0364 66.9405 33.3224 66.4085C32.6084 65.8625 32.3984 64.9245 32.3984 62.2365C32.3984 59.5625 32.6084 58.6245 33.3224 58.0785C34.0364 57.5325 34.9044 57.4345 38.8104 57.4345C42.7164 57.4345 43.5844 57.5325 44.2984 58.0785C45.0264 58.6385 45.2224 59.5625 45.2224 62.3065C45.2224 63.1885 45.1944 63.9445 45.1384 64.4065L46.3424 65.0225ZM39.4684 60.9625L42.3664 62.7965C42.3804 62.6565 42.3804 62.5585 42.3804 62.5025C42.3804 61.1165 42.2964 60.5845 42.0444 60.2765C41.7224 59.8985 41.4144 59.8565 38.8104 59.8565C36.0104 59.8565 35.7584 59.8985 35.4644 60.4445C35.2964 60.7665 35.2404 61.3125 35.2404 62.4885C35.2404 63.6365 35.3384 64.0425 35.6604 64.2945C36.0384 64.5885 36.4724 64.6305 38.9364 64.6305C40.3364 64.6305 40.8544 64.6165 41.3444 64.5325L38.3344 62.9365L39.4684 60.9625ZM47.086 57.5745H52.238L55.01 63.6365L57.796 57.5745H62.92V66.9125H60.12L60.19 59.9265H59.714L56.2 66.9125H53.834L50.32 59.9265H49.816L49.886 66.9125H47.086V57.5745ZM74.8989 66.9125L74.1009 65.3305H67.9269L67.1289 66.9125H63.8809L68.8229 57.5745H73.2469L78.1329 66.9125H74.8989ZM73.1069 63.2865L71.3009 59.7445H70.7409L68.9349 63.2865H73.1069Z" fill="white"/>
<path d="M14.4055 33.1599C18.5502 29.5749 20.8393 28.0301 24.8384 26.4444C29.3137 35.485 32.8311 39.1953 42.8845 40.7149L40.0648 47.7101C26.5577 47.9989 21.3489 44.1106 14.4055 33.1599Z" fill="white"/>
<path d="M18.6351 8.53649C29.6235 5.96993 38.091 6.57779 46.832 18.3299C52.1895 25.8848 51.9619 35.3924 45.1402 46.5909C55.092 41.8322 61.2125 34.1794 61.2125 23.0867C61.2125 6.29797 45.1402 1.54119 45.1402 1.54119C45.1402 1.54119 28.504 -4.8945 18.6351 8.53649Z" fill="white"/>
<path d="M12.9957 29.2426C22.4574 19.0274 29.244 17.3655 44.2943 22.5271C35.1708 12.2589 29.272 9.03618 16.0973 11.8942C12.0566 19.7913 11.9799 23.3506 12.9957 29.2426Z" fill="white"/>
</svg>
